<svg xmlns="http://www.w3.org/2000/svg" width="56" height="56" fill="none"><g filter="url(#a)"><g fill="#000" clip-path="url(#b)"><path d="M22 17h-2v2h2v-2ZM36 17H24v2h12v-2ZM22 21h-2v2h2v-2ZM36 21H24v2h12v-2ZM22 25h-2v2h2v-2ZM36 25H24v2h12v-2ZM22 29h-2v2h2v-2ZM36 29H24v2h12v-2Z"/></g><rect width="46" height="46" x="5" y="1" stroke="#E5E5E5" stroke-width="2" rx="3" shape-rendering="crispEdges"/></g><defs><clipPath id="b"><path fill="#fff" d="M20 17h16v14H20z"/></clipPath><filter id="a" width="56" height="56" x="0" y="0" color-interpolation-filters="sRGB" filterUnits="userSpaceOnUse"><feFlood flood-opacity="0" result="BackgroundImageFix"/><feColorMatrix in="SourceAlpha" result="hardAlpha" values="0 0 0 0 0 0 0 0 0 0 0 0 0 0 0 0 0 0 127 0"/><feOffset dy="4"/><feGaussianBlur stdDeviation="2"/><feComposite in2="hardAlpha" operator="out"/><feColorMatrix values="0 0 0 0 0 0 0 0 0 0 0 0 0 0 0 0 0 0 0.25 0"/><feBlend in2="BackgroundImageFix" result="effect1_dropShadow_33548_2388"/><feBlend in="SourceGraphic" in2="effect1_dropShadow_33548_2388" result="shape"/></filter></defs></svg>
